<svg xmlns="http://www.w3.org/2000/svg" viewBox="0 0 48 48" role="img" aria-labelledby="title desc">
  <title>Mãe Determinada</title>
  <desc>Ícone minimalista de broto crescendo com faísca</desc>
  <g fill="none" stroke-linecap="round" stroke-linejoin="round">
    <path stroke="#2F3A56" stroke-width="1.5" d="M14.5 34.5h19"/>
    <path stroke="#2F3A56" stroke-width="1.5" d="M24 34.5v-11"/>
    <path fill="#FF6F61" stroke="#2F3A56" stroke-width="1.5" d="M21.8 30.3c-3.5-1.3-6.1-5.2-5.7-9.1 4 .2 7.3 2.6 8.7 5.5-1 1.8-1.8 2.8-3 3.6Z"/>
    <path fill="#FF6F61" stroke="#2F3A56" stroke-width="1.5" d="M26.2 30.3c3.5-1.3 6.1-5.2 5.7-9.1-4 .2-7.3 2.6-8.7 5.5 1 1.8 1.8 2.8 3 3.6Z"/>
    <path stroke="#2F3A56" stroke-width="1.5" d="M24 23.2c-1.4-3.4-4.3-6.1-8.7-6.2"/>
    <path stroke="#2F3A56" stroke-width="1.5" d="M24 23.2c1.4-3.4 4.3-6.1 8.7-6.2"/>
    <path fill="#F9C9B7" stroke="#2F3A56" stroke-width="1.2" d="m32.7 13.8 1.1 1.8 2-.2-1.2 1.7 1.1 1.8-1.9-.6-1.2 1.7-.2-2-1.9-.7 1.9-.7Z"/>
  </g>
</svg>
