<svg xmlns="http://www.w3.org/2000/svg" viewBox="0 0 48 48" role="img" aria-labelledby="title desc">
  <title>Mãe Criativa</title>
  <desc>Ícone minimalista de pincel com pequenos brilhos</desc>
  <g fill="none" stroke-linecap="round" stroke-linejoin="round">
    <path fill="#FF6F61" stroke="#2F3A56" stroke-width="1.5" d="M31.9 12.5 17.3 27.2c-2.1 2.1-3 4.7-1.1 6.6 1.8 1.8 4.4 1 6.5-1.1l14.6-14.7c1.9-1.9 1.3-4.4-.7-6.4-1.8-1.8-4.1-1.4-4.7.9Z"/>
    <path fill="#2F3A56" stroke="#2F3A56" stroke-width="1.5" d="M34.9 9.6c-1-.3-2.4.1-3 1.4-.6 1.3.1 2.4.9 3.2l3.8-3.8c-.5-.5-1-1-1.7-1.3Z"/>
    <path stroke="#2F3A56" stroke-width="1.5" d="m19.7 29.6 7.7 7.7"/>
    <path stroke="#2F3A56" stroke-width="1.5" d="M17.3 34.3 21 38"/>
    <path fill="#F9C9B7" stroke="#2F3A56" stroke-width="1.2" d="m13.4 16.2 1.6.6.6-1.6.6 1.6 1.6-.6-.6 1.6 1.6.6-1.6.6.6 1.6-1.6-.6-.6 1.6-.6-1.6-1.6.6.6-1.6-1.6-.6 1.6-.6Z"/>
    <path fill="#F9C9B7" stroke="#2F3A56" stroke-width="1.2" d="m25.5 11 1.1.4.4-1.1.4 1.1 1.1-.4-.4 1.1 1.1.4-1.1.4.4 1.1-1.1-.4-.4 1.1-.4-1.1-1.1.4.4-1.1-1.1-.4 1.1-.4Z"/>
  </g>
</svg>
