<svg xmlns="http://www.w3.org/2000/svg" viewBox="0 0 48 48" role="img" aria-labelledby="title desc">
  <title>Mãe Leve</title>
  <desc>Ícone minimalista de nuvem suave com sol surgindo</desc>
  <g fill="none" stroke-linecap="round" stroke-linejoin="round">
    <circle cx="31.5" cy="15.5" r="4.5" fill="#FF6F61"/>
    <path stroke="#2F3A56" stroke-width="1.5" d="M31.5 9.5v-2.4"/>
    <path stroke="#2F3A56" stroke-width="1.5" d="M38.3 12.2 40 10.2"/>
    <path stroke="#2F3A56" stroke-width="1.5" d="M24.7 12.2 23 10.2"/>
    <path fill="#F9C9B7" stroke="#2F3A56" stroke-width="1.5" d="M15 33.5h18.2c3.3 0 5.9-2.4 5.9-5.5 0-2.4-1.6-4.5-4-5.2a8 8 0 0 0-7.8-6.1c-2.9 0-5.4 1.6-6.7 4a5.2 5.2 0 0 0-2.4-.6c-3.4 0-6.2 2.6-6.2 5.9 0 .6.1 1.2.3 1.8-2.1.6-3.6 2.4-3.6 4.6 0 2.9 2.4 5.1 5.3 5.1Z"/>
  </g>
</svg>
