<svg xmlns="http://www.w3.org/2000/svg" viewBox="0 0 48 48" role="img" aria-labelledby="title desc">
  <title>Mãe Carinhosa</title>
  <desc>Ícone minimalista de mãos formando um coração</desc>
  <g fill="none" stroke-linecap="round" stroke-linejoin="round">
    <path fill="#FF6F61" d="M24 17.5c-2.4-3.4-7.9-3.2-10 0.6-2.6 4.3 0.8 8.8 10 14.9 9.2-6.1 12.6-10.6 10-14.9-2.1-3.8-7.6-4-10-.6Z"/>
    <path stroke="#2F3A56" stroke-width="1.5" d="M11.2 26.8c0 4.2 2.3 7.5 5.6 9.1l3.5 1.6c1.2.6 2.7-.2 2.7-1.6v-3.2"/>
    <path stroke="#2F3A56" stroke-width="1.5" d="M36.8 26.8c0 4.2-2.3 7.5-5.6 9.1l-3.5 1.6c-1.2.6-2.7-.2-2.7-1.6v-3.2"/>
    <path stroke="#2F3A56" stroke-width="1.5" d="M18.2 25.2c1.7-1.6 3.6-1.8 5.8-.9"/>
    <path stroke="#2F3A56" stroke-width="1.5" d="M29.8 25.2c-1.7-1.6-3.6-1.8-5.8-.9"/>
    <circle cx="28" cy="19.2" r="1.6" fill="#F9C9B7" stroke="none"/>
  </g>
</svg>
